<?xml version="1.0" encoding="UTF-8"?>
<!-- Do not edit this file with editors other than draw.io -->
<!DOCTYPE svg PUBLIC "-//W3C//DTD SVG 1.1//EN" "http://www.w3.org/Graphics/SVG/1.1/DTD/svg11.dtd">
<svg xmlns="http://www.w3.org/2000/svg" xmlns:xlink="http://www.w3.org/1999/xlink" version="1.1" width="688px" height="437px" viewBox="-0.5 -0.5 688 437" content="&lt;mxfile host=&quot;Electron&quot; agent=&quot;Mozilla/5.0 (Windows NT 10.0; Win64; x64) AppleWebKit/537.36 (KHTML, like Gecko) draw.io/24.7.17 Chrome/128.0.6613.36 Electron/32.0.1 Safari/537.36&quot; version=&quot;24.7.17&quot; scale=&quot;1&quot; border=&quot;0&quot;&gt;&#10;  &lt;diagram name=&quot;Page-1&quot; id=&quot;dTJzIhigD5UWpi2KQ5bc&quot;&gt;&#10;    &lt;mxGraphModel dx=&quot;1121&quot; dy=&quot;776&quot; grid=&quot;1&quot; gridSize=&quot;10&quot; guides=&quot;1&quot; tooltips=&quot;1&quot; connect=&quot;1&quot; arrows=&quot;1&quot; fold=&quot;1&quot; page=&quot;1&quot; pageScale=&quot;1&quot; pageWidth=&quot;1100&quot; pageHeight=&quot;850&quot; background=&quot;#ffffff&quot; math=&quot;0&quot; shadow=&quot;0&quot;&gt;&#10;      &lt;root&gt;&#10;        &lt;mxCell id=&quot;0&quot; /&gt;&#10;        &lt;mxCell id=&quot;1&quot; parent=&quot;0&quot; /&gt;&#10;        &lt;mxCell id=&quot;2&quot; value=&quot;&quot; style=&quot;curved=1;endArrow=none;html=1;rounded=0;endFill=0;strokeColor=#000000;strokeWidth=6;&quot; edge=&quot;1&quot; parent=&quot;1&quot;&gt;&#10;          &lt;mxGeometry width=&quot;50&quot; height=&quot;50&quot; relative=&quot;1&quot; as=&quot;geometry&quot;&gt;&#10;            &lt;mxPoint x=&quot;80&quot; y=&quot;240&quot; as=&quot;sourcePoint&quot; /&gt;&#10;            &lt;mxPoint x=&quot;760&quot; y=&quot;240&quot; as=&quot;targetPoint&quot; /&gt;&#10;            &lt;Array as=&quot;points&quot;&gt;&#10;              &lt;mxPoint x=&quot;150&quot; y=&quot;430&quot; /&gt;&#10;              &lt;mxPoint x=&quot;280&quot; y=&quot;500&quot; /&gt;&#10;              &lt;mxPoint x=&quot;370&quot; y=&quot;280&quot; /&gt;&#10;              &lt;mxPoint x=&quot;430&quot; y=&quot;200&quot; /&gt;&#10;              &lt;mxPoint x=&quot;500&quot; y=&quot;200&quot; /&gt;&#10;              &lt;mxPoint x=&quot;570&quot; y=&quot;280&quot; /&gt;&#10;              &lt;mxPoint x=&quot;690&quot; y=&quot;280&quot; /&gt;&#10;            &lt;/Array&gt;&#10;          &lt;/mxGeometry&gt;&#10;        &lt;/mxCell&gt;&#10;        &lt;mxCell id=&quot;3&quot; value=&quot;&quot; style=&quot;ellipse;whiteSpace=wrap;html=1;aspect=fixed;fillColor=#0050ef;fontColor=#ffffff;strokeColor=#001DBC;&quot; vertex=&quot;1&quot; parent=&quot;1&quot;&gt;&#10;          &lt;mxGeometry x=&quot;444&quot; y=&quot;160&quot; width=&quot;40&quot; height=&quot;40&quot; as=&quot;geometry&quot; /&gt;&#10;        &lt;/mxCell&gt;&#10;        &lt;mxCell id=&quot;4&quot; value=&quot;&quot; style=&quot;endArrow=none;html=1;rounded=0;strokeWidth=6;strokeColor=#000000;&quot; edge=&quot;1&quot; parent=&quot;1&quot;&gt;&#10;          &lt;mxGeometry width=&quot;50&quot; height=&quot;50&quot; relative=&quot;1&quot; as=&quot;geometry&quot;&gt;&#10;            &lt;mxPoint x=&quot;80&quot; y=&quot;510&quot; as=&quot;sourcePoint&quot; /&gt;&#10;            &lt;mxPoint x=&quot;80&quot; y=&quot;80&quot; as=&quot;targetPoint&quot; /&gt;&#10;          &lt;/mxGeometry&gt;&#10;        &lt;/mxCell&gt;&#10;        &lt;mxCell id=&quot;5&quot; value=&quot;&quot; style=&quot;endArrow=none;html=1;rounded=0;strokeWidth=6;strokeColor=#000000;&quot; edge=&quot;1&quot; parent=&quot;1&quot;&gt;&#10;          &lt;mxGeometry width=&quot;50&quot; height=&quot;50&quot; relative=&quot;1&quot; as=&quot;geometry&quot;&gt;&#10;            &lt;mxPoint x=&quot;760&quot; y=&quot;510&quot; as=&quot;sourcePoint&quot; /&gt;&#10;            &lt;mxPoint x=&quot;760&quot; y=&quot;80&quot; as=&quot;targetPoint&quot; /&gt;&#10;          &lt;/mxGeometry&gt;&#10;        &lt;/mxCell&gt;&#10;        &lt;mxCell id=&quot;6&quot; value=&quot;&quot; style=&quot;ellipse;whiteSpace=wrap;html=1;aspect=fixed;fillColor=#FF3333;fontColor=#ffffff;strokeColor=#FF3333;fillStyle=hachure;gradientColor=none;fillOpacity=100;direction=north;sketch=1;curveFitting=1;jiggle=0;hachureGap=3;dashOffset=-1;fillWeight=1;sketchStyle=rough;zigzagOffset=-1;shadow=0;simplification=1;disableMultiStroke=0;hachureAngle=-48;strokeWidth=2;&quot; vertex=&quot;1&quot; parent=&quot;1&quot;&gt;&#10;          &lt;mxGeometry x=&quot;610&quot; y=&quot;238&quot; width=&quot;40&quot; height=&quot;40&quot; as=&quot;geometry&quot; /&gt;&#10;        &lt;/mxCell&gt;&#10;        &lt;mxCell id=&quot;7&quot; value=&quot;&quot; style=&quot;endArrow=classic;html=1;rounded=0;endFill=1;strokeColor=#FF3333;strokeWidth=3;&quot; edge=&quot;1&quot; parent=&quot;1&quot;&gt;&#10;          &lt;mxGeometry width=&quot;50&quot; height=&quot;50&quot; relative=&quot;1&quot; as=&quot;geometry&quot;&gt;&#10;            &lt;mxPoint x=&quot;500&quot; y=&quot;190&quot; as=&quot;sourcePoint&quot; /&gt;&#10;            &lt;mxPoint x=&quot;530&quot; y=&quot;210&quot; as=&quot;targetPoint&quot; /&gt;&#10;          &lt;/mxGeometry&gt;&#10;        &lt;/mxCell&gt;&#10;        &lt;mxCell id=&quot;8&quot; value=&quot;&quot; style=&quot;endArrow=classic;html=1;rounded=0;endFill=1;strokeColor=#FF3333;strokeWidth=3;&quot; edge=&quot;1&quot; parent=&quot;1&quot;&gt;&#10;          &lt;mxGeometry width=&quot;50&quot; height=&quot;50&quot; relative=&quot;1&quot; as=&quot;geometry&quot;&gt;&#10;            &lt;mxPoint x=&quot;560&quot; y=&quot;240&quot; as=&quot;sourcePoint&quot; /&gt;&#10;            &lt;mxPoint x=&quot;590&quot; y=&quot;250&quot; as=&quot;targetPoint&quot; /&gt;&#10;          &lt;/mxGeometry&gt;&#10;        &lt;/mxCell&gt;&#10;        &lt;mxCell id=&quot;9&quot; value=&quot;&quot; style=&quot;ellipse;whiteSpace=wrap;html=1;aspect=fixed;fillColor=#FF3333;fontColor=#ffffff;strokeColor=#FF3333;fillStyle=hachure;gradientColor=none;fillOpacity=100;direction=north;sketch=1;curveFitting=1;jiggle=0;hachureGap=3;dashOffset=-1;fillWeight=1;sketchStyle=rough;zigzagOffset=-1;shadow=0;simplification=1;disableMultiStroke=0;hachureAngle=-48;strokeWidth=2;&quot; vertex=&quot;1&quot; parent=&quot;1&quot;&gt;&#10;          &lt;mxGeometry x=&quot;224&quot; y=&quot;431&quot; width=&quot;40&quot; height=&quot;40&quot; as=&quot;geometry&quot; /&gt;&#10;        &lt;/mxCell&gt;&#10;        &lt;mxCell id=&quot;10&quot; value=&quot;&quot; style=&quot;endArrow=classic;html=1;rounded=0;endFill=1;strokeColor=#FF3333;strokeWidth=3;&quot; edge=&quot;1&quot; parent=&quot;1&quot;&gt;&#10;          &lt;mxGeometry width=&quot;50&quot; height=&quot;50&quot; relative=&quot;1&quot; as=&quot;geometry&quot;&gt;&#10;            &lt;mxPoint x=&quot;427&quot; y=&quot;189&quot; as=&quot;sourcePoint&quot; /&gt;&#10;            &lt;mxPoint x=&quot;397&quot; y=&quot;219&quot; as=&quot;targetPoint&quot; /&gt;&#10;          &lt;/mxGeometry&gt;&#10;        &lt;/mxCell&gt;&#10;        &lt;mxCell id=&quot;11&quot; value=&quot;&quot; style=&quot;endArrow=classic;html=1;rounded=0;endFill=1;strokeColor=#FF3333;strokeWidth=3;&quot; edge=&quot;1&quot; parent=&quot;1&quot;&gt;&#10;          &lt;mxGeometry width=&quot;50&quot; height=&quot;50&quot; relative=&quot;1&quot; as=&quot;geometry&quot;&gt;&#10;            &lt;mxPoint x=&quot;340&quot; y=&quot;320&quot; as=&quot;sourcePoint&quot; /&gt;&#10;            &lt;mxPoint x=&quot;320&quot; y=&quot;360&quot; as=&quot;targetPoint&quot; /&gt;&#10;            &lt;Array as=&quot;points&quot;&gt;&#10;              &lt;mxPoint x=&quot;340&quot; y=&quot;320&quot; /&gt;&#10;            &lt;/Array&gt;&#10;          &lt;/mxGeometry&gt;&#10;        &lt;/mxCell&gt;&#10;        &lt;mxCell id=&quot;12&quot; value=&quot;&quot; style=&quot;endArrow=classic;html=1;rounded=0;endFill=1;strokeColor=#FF3333;strokeWidth=3;&quot; edge=&quot;1&quot; parent=&quot;1&quot;&gt;&#10;          &lt;mxGeometry width=&quot;50&quot; height=&quot;50&quot; relative=&quot;1&quot; as=&quot;geometry&quot;&gt;&#10;            &lt;mxPoint x=&quot;300&quot; y=&quot;401&quot; as=&quot;sourcePoint&quot; /&gt;&#10;            &lt;mxPoint x=&quot;280&quot; y=&quot;431&quot; as=&quot;targetPoint&quot; /&gt;&#10;          &lt;/mxGeometry&gt;&#10;        &lt;/mxCell&gt;&#10;        &lt;mxCell id=&quot;13&quot; value=&quot;&quot; style=&quot;endArrow=classic;html=1;rounded=0;endFill=1;strokeColor=#FF3333;strokeWidth=3;&quot; edge=&quot;1&quot; parent=&quot;1&quot;&gt;&#10;          &lt;mxGeometry width=&quot;50&quot; height=&quot;50&quot; relative=&quot;1&quot; as=&quot;geometry&quot;&gt;&#10;            &lt;mxPoint x=&quot;370&quot; y=&quot;250&quot; as=&quot;sourcePoint&quot; /&gt;&#10;            &lt;mxPoint x=&quot;350&quot; y=&quot;290&quot; as=&quot;targetPoint&quot; /&gt;&#10;          &lt;/mxGeometry&gt;&#10;        &lt;/mxCell&gt;&#10;      &lt;/root&gt;&#10;    &lt;/mxGraphModel&gt;&#10;  &lt;/diagram&gt;&#10;&lt;/mxfile&gt;&#10;"><defs/><g><g data-cell-id="0"><g data-cell-id="1"><g data-cell-id="wDfhOBU-fJ_5SD42fPcA-1"><g><path d="M 3 162 Q 73 352 138 387 Q 203 422 248 312 Q 293 202 323 162 Q 353 122 388 122 Q 423 122 458 162 Q 493 202 553 202 Q 613 202 683 162" fill="none" stroke="#000000" stroke-width="6" stroke-miterlimit="10" pointer-events="stroke"/></g></g><g data-cell-id="wDfhOBU-fJ_5SD42fPcA-2"><g><ellipse cx="387" cy="102" rx="20" ry="20" fill="#0050ef" stroke="#001dbc" pointer-events="all"/></g></g><g data-cell-id="wDfhOBU-fJ_5SD42fPcA-3"><g><path d="M 3 432 L 3 2" fill="none" stroke="#000000" stroke-width="6" stroke-miterlimit="10" pointer-events="stroke"/></g></g><g data-cell-id="wDfhOBU-fJ_5SD42fPcA-4"><g><path d="M 683 432 L 683 2" fill="none" stroke="#000000" stroke-width="6" stroke-miterlimit="10" pointer-events="stroke"/></g></g><g data-cell-id="wDfhOBU-fJ_5SD42fPcA-5"><g><ellipse cx="553" cy="180" rx="20" ry="20" fill="none" stroke="none" transform="rotate(270,553,180)" pointer-events="all"/><path d="M 540.1 164.72 C 540.1 164.72 540.1 164.72 540.1 164.72 M 540.1 164.72 C 540.1 164.72 540.1 164.72 540.1 164.72 M 534.67 173.64 C 539.46 169.33 544.24 165.02 548.79 160.93 M 534.67 173.64 C 538.01 170.64 541.35 167.63 548.79 160.93 M 533.71 178.55 C 540.93 172.04 548.16 165.54 553.77 160.48 M 533.71 178.55 C 538.61 174.13 543.51 169.72 553.77 160.48 M 533.49 182.79 C 540.94 176.08 548.39 169.37 558.01 160.7 M 533.49 182.79 C 539.82 177.08 546.16 171.37 558.01 160.7 M 534.01 186.35 C 541.09 179.97 548.18 173.59 560.76 162.26 M 534.01 186.35 C 541.38 179.71 548.76 173.07 560.76 162.26 M 535.27 189.25 C 542.19 183.03 549.1 176.8 564.25 163.16 M 535.27 189.25 C 543.19 182.12 551.11 174.99 564.25 163.16 M 537.28 191.48 C 544.8 184.71 552.32 177.94 566.26 165.38 M 537.28 191.48 C 545.13 184.41 552.99 177.34 566.26 165.38 M 538.54 194.38 C 548.59 185.34 558.63 176.29 568.27 167.61 M 538.54 194.38 C 550.25 183.84 561.95 173.3 568.27 167.61 M 541.29 195.94 C 552.83 185.55 564.37 175.16 570.28 169.84 M 541.29 195.94 C 550.97 187.22 560.65 178.51 570.28 169.84 M 543.3 198.17 C 549.38 192.69 555.46 187.22 571.54 172.74 M 543.3 198.17 C 549.35 192.72 555.39 187.28 571.54 172.74 M 546.79 199.06 C 555.99 190.78 565.19 182.5 572.8 175.64 M 546.79 199.06 C 553.28 193.22 559.77 187.38 572.8 175.64 M 550.29 199.95 C 557.27 193.66 564.26 187.37 573.33 179.21 M 550.29 199.95 C 555.12 195.6 559.96 191.24 573.33 179.21 M 554.52 200.17 C 558.57 196.53 562.62 192.88 573.1 183.45 M 554.52 200.17 C 559.79 195.43 565.06 190.69 573.1 183.45 M 560.25 199.06 C 562.88 196.69 565.51 194.32 570.65 189.69 M 560.25 199.06 C 563.76 195.89 567.28 192.73 570.65 189.69" fill="none" stroke="#ff3333" stroke-linejoin="round" stroke-linecap="round" stroke-miterlimit="10" transform="rotate(270,553,180)" pointer-events="all"/><path d="M 573 180 C 573 181.16 572.9 182.33 572.7 183.47 C 572.5 184.61 572.19 185.75 571.79 186.84 C 571.4 187.93 570.9 189 570.32 190 C 569.74 191 569.07 191.97 568.32 192.86 C 567.58 193.74 566.74 194.58 565.86 195.32 C 564.97 196.07 564 196.74 563 197.32 C 562 197.9 560.93 198.4 559.84 198.79 C 558.75 199.19 557.61 199.5 556.47 199.7 C 555.33 199.9 554.16 200 553 200 C 551.84 200 550.67 199.9 549.53 199.7 C 548.39 199.5 547.25 199.19 546.16 198.79 C 545.07 198.4 544 197.9 543 197.32 C 542 196.74 541.03 196.07 540.14 195.32 C 539.26 194.58 538.42 193.74 537.68 192.86 C 536.93 191.97 536.26 191 535.68 190 C 535.1 189 534.6 187.93 534.21 186.84 C 533.81 185.75 533.5 184.61 533.3 183.47 C 533.1 182.33 533 181.16 533 180 C 533 178.84 533.1 177.67 533.3 176.53 C 533.5 175.39 533.81 174.25 534.21 173.16 C 534.6 172.07 535.1 171 535.68 170 C 536.26 169 536.93 168.03 537.68 167.14 C 538.42 166.26 539.26 165.42 540.14 164.68 C 541.03 163.93 542 163.26 543 162.68 C 544 162.1 545.07 161.6 546.16 161.21 C 547.25 160.81 548.39 160.5 549.53 160.3 C 550.67 160.1 551.84 160 553 160 C 554.16 160 555.33 160.1 556.47 160.3 C 557.61 160.5 558.75 160.81 559.84 161.21 C 560.93 161.6 562 162.1 563 162.68 C 564 163.26 564.97 163.93 565.86 164.68 C 566.74 165.42 567.58 166.26 568.32 167.14 C 569.07 168.03 569.74 169 570.32 170 C 570.9 171 571.4 172.07 571.79 173.16 C 572.19 174.25 572.5 175.39 572.7 176.53 C 572.9 177.67 572.95 179.42 573 180 C 573.05 180.58 573.05 179.42 573 180" fill="none" stroke="#ff3333" stroke-width="2" stroke-linejoin="round" stroke-linecap="round" stroke-miterlimit="10" transform="rotate(270,553,180)" pointer-events="all"/></g></g><g data-cell-id="wDfhOBU-fJ_5SD42fPcA-6"><g><path d="M 423 112 L 444.59 126.4" fill="none" stroke="#ff3333" stroke-width="3" stroke-miterlimit="10" pointer-events="stroke"/><path d="M 450.21 130.14 L 440.22 128.89 L 444.59 126.4 L 445.22 121.4 Z" fill="#ff3333" stroke="#ff3333" stroke-width="3" stroke-miterlimit="10" pointer-events="all"/></g></g><g data-cell-id="wDfhOBU-fJ_5SD42fPcA-7"><g><path d="M 483 162 L 503.41 168.8" fill="none" stroke="#ff3333" stroke-width="3" stroke-miterlimit="10" pointer-events="stroke"/><path d="M 509.82 170.94 L 499.86 172.36 L 503.41 168.8 L 502.7 163.82 Z" fill="#ff3333" stroke="#ff3333" stroke-width="3" stroke-miterlimit="10" pointer-events="all"/></g></g><g data-cell-id="wDfhOBU-fJ_5SD42fPcA-8"><g><ellipse cx="167" cy="373" rx="20" ry="20" fill="none" stroke="none" transform="rotate(270,167,373)" pointer-events="all"/><path d="M 154.09 357.72 C 154.09 357.72 154.09 357.72 154.09 357.72 M 154.09 357.72 C 154.09 357.72 154.09 357.72 154.09 357.72 M 148.67 366.64 C 152.41 363.28 156.15 359.91 162.79 353.93 M 148.67 366.64 C 153.85 361.98 159.03 357.32 162.79 353.93 M 147.7 371.55 C 154.32 365.6 160.93 359.64 167.77 353.48 M 147.7 371.55 C 153.45 366.38 159.2 361.2 167.77 353.48 M 147.48 375.79 C 154.86 369.15 162.23 362.51 172.01 353.71 M 147.48 375.79 C 153.22 370.62 158.96 365.46 172.01 353.71 M 148 379.36 C 157.06 371.2 166.11 363.05 174.76 355.27 M 148 379.36 C 158.53 369.88 169.05 360.4 174.76 355.27 M 149.27 382.25 C 159.86 372.71 170.46 363.17 178.25 356.16 M 149.27 382.25 C 157.17 375.14 165.08 368.02 178.25 356.16 M 151.28 384.48 C 160.53 376.15 169.79 367.81 180.26 358.39 M 151.28 384.48 C 157.1 379.24 162.92 374 180.26 358.39 M 152.54 387.38 C 161.62 379.21 170.69 371.04 182.27 360.62 M 152.54 387.38 C 162.19 378.69 171.84 370 182.27 360.62 M 155.29 388.94 C 162.54 382.41 169.79 375.89 184.27 362.85 M 155.29 388.94 C 164.15 380.97 173.01 372.99 184.27 362.85 M 157.3 391.17 C 164.49 384.69 171.69 378.22 185.54 365.74 M 157.3 391.17 C 166.25 383.11 175.2 375.05 185.54 365.74 M 160.79 392.06 C 167.23 386.26 173.67 380.46 186.8 368.64 M 160.79 392.06 C 169.65 384.09 178.5 376.12 186.8 368.64 M 164.29 392.95 C 172.06 385.95 179.84 378.95 187.32 372.21 M 164.29 392.95 C 172.65 385.43 181.01 377.9 187.32 372.21 M 168.52 393.18 C 173.49 388.7 178.47 384.22 187.1 376.45 M 168.52 393.18 C 173.61 388.59 178.7 384.01 187.1 376.45 M 174.25 392.06 C 178.06 388.62 181.88 385.18 184.65 382.69 M 174.25 392.06 C 176.97 389.61 179.69 387.16 184.65 382.69" fill="none" stroke="#ff3333" stroke-linejoin="round" stroke-linecap="round" stroke-miterlimit="10" transform="rotate(270,167,373)" pointer-events="all"/><path d="M 187 373 C 187 374.16 186.9 375.33 186.7 376.47 C 186.5 377.61 186.19 378.75 185.79 379.84 C 185.4 380.93 184.9 382 184.32 383 C 183.74 384 183.07 384.97 182.32 385.86 C 181.58 386.74 180.74 387.58 179.86 388.32 C 178.97 389.07 178 389.74 177 390.32 C 176 390.9 174.93 391.4 173.84 391.79 C 172.75 392.19 171.61 392.5 170.47 392.7 C 169.33 392.9 168.16 393 167 393 C 165.84 393 164.67 392.9 163.53 392.7 C 162.39 392.5 161.25 392.19 160.16 391.79 C 159.07 391.4 158 390.9 157 390.32 C 156 389.74 155.03 389.07 154.14 388.32 C 153.26 387.58 152.42 386.74 151.68 385.86 C 150.93 384.97 150.26 384 149.68 383 C 149.1 382 148.6 380.93 148.21 379.84 C 147.81 378.75 147.5 377.61 147.3 376.47 C 147.1 375.33 147 374.16 147 373 C 147 371.84 147.1 370.67 147.3 369.53 C 147.5 368.39 147.81 367.25 148.21 366.16 C 148.6 365.07 149.1 364 149.68 363 C 150.26 362 150.93 361.03 151.68 360.14 C 152.42 359.26 153.26 358.42 154.14 357.68 C 155.03 356.93 156 356.26 157 355.68 C 158 355.1 159.07 354.6 160.16 354.21 C 161.25 353.81 162.39 353.5 163.53 353.3 C 164.67 353.1 165.84 353 167 353 C 168.16 353 169.33 353.1 170.47 353.3 C 171.61 353.5 172.75 353.81 173.84 354.21 C 174.93 354.6 176 355.1 177 355.68 C 178 356.26 178.97 356.93 179.86 357.68 C 180.74 358.42 181.58 359.26 182.32 360.14 C 183.07 361.03 183.74 362 184.32 363 C 184.9 364 185.4 365.07 185.79 366.16 C 186.19 367.25 186.5 368.39 186.7 369.53 C 186.9 370.67 186.95 372.42 187 373 C 187.05 373.58 187.05 372.42 187 373" fill="none" stroke="#ff3333" stroke-width="2" stroke-linejoin="round" stroke-linecap="round" stroke-miterlimit="10" transform="rotate(270,167,373)" pointer-events="all"/></g></g><g data-cell-id="wDfhOBU-fJ_5SD42fPcA-10"><g><path d="M 350 111 L 327.14 133.86" fill="none" stroke="#ff3333" stroke-width="3" stroke-miterlimit="10" pointer-events="stroke"/><path d="M 322.37 138.63 L 325.55 129.08 L 327.14 133.86 L 331.92 135.45 Z" fill="#ff3333" stroke="#ff3333" stroke-width="3" stroke-miterlimit="10" pointer-events="all"/></g></g><g data-cell-id="wDfhOBU-fJ_5SD42fPcA-11"><g><path d="M 263 242 L 247.52 272.96" fill="none" stroke="#ff3333" stroke-width="3" stroke-miterlimit="10" pointer-events="stroke"/><path d="M 244.5 279 L 244.5 268.94 L 247.52 272.96 L 252.55 272.96 Z" fill="#ff3333" stroke="#ff3333" stroke-width="3" stroke-miterlimit="10" pointer-events="all"/></g></g><g data-cell-id="wDfhOBU-fJ_5SD42fPcA-12"><g><path d="M 223 323 L 208.6 344.59" fill="none" stroke="#ff3333" stroke-width="3" stroke-miterlimit="10" pointer-events="stroke"/><path d="M 204.86 350.21 L 206.11 340.22 L 208.6 344.59 L 213.6 345.22 Z" fill="#ff3333" stroke="#ff3333" stroke-width="3" stroke-miterlimit="10" pointer-events="all"/></g></g><g data-cell-id="wDfhOBU-fJ_5SD42fPcA-13"><g><path d="M 293 172 L 277.52 202.96" fill="none" stroke="#ff3333" stroke-width="3" stroke-miterlimit="10" pointer-events="stroke"/><path d="M 274.5 209 L 274.5 198.94 L 277.52 202.96 L 282.55 202.96 Z" fill="#ff3333" stroke="#ff3333" stroke-width="3" stroke-miterlimit="10" pointer-events="all"/></g></g></g></g></g></svg>